solid Exported_from_Blender-2.76_(sub_0)
 facet normal -1 0 0
  outer loop
   vertex -1 0.5 -0.49935
   vertex -1 -0.5 -0.49935
   vertex -1 -0.5 0.00065
  endloop
 endfacet
 facet normal -1 -0 -0
  outer loop
   vertex -1 -0.5 0.00065
   vertex -1 0.5 0.00065
   vertex -1 0.5 -0.49935
  endloop
 endfacet
 facet normal 0 1 0
  outer loop
   vertex -1 0.5 0.00065
   vertex 1 0.5 0.00065
   vertex 1 0.5 -0.49935
  endloop
 endfacet
 facet normal 0 1 0
  outer loop
   vertex 1 0.5 -0.49935
   vertex -1 0.5 -0.49935
   vertex -1 0.5 0.00065
  endloop
 endfacet
 facet normal 1 -0 0
  outer loop
   vertex 1 0.5 0.00065
   vertex 1 -0.5 0.00065
   vertex 1 -0.5 -0.49935
  endloop
 endfacet
 facet normal 1 0 -0
  outer loop
   vertex 1 -0.5 -0.49935
   vertex 1 0.5 -0.49935
   vertex 1 0.5 0.00065
  endloop
 endfacet
 facet normal 0 -1 0
  outer loop
   vertex -1 -0.5 -0.49935
   vertex 1 -0.5 -0.49935
   vertex 1 -0.5 0.00065
  endloop
 endfacet
 facet normal 0 -1 0
  outer loop
   vertex 1 -0.5 0.00065
   vertex -1 -0.5 0.00065
   vertex -1 -0.5 -0.49935
  endloop
 endfacet
 facet normal 0 0 -1
  outer loop
   vertex -1 -0.5 -0.49935
   vertex -1 0.5 -0.49935
   vertex 1 0.5 -0.49935
  endloop
 endfacet
 facet normal 0 0 -1
  outer loop
   vertex 1 0.5 -0.49935
   vertex 1 -0.5 -0.49935
   vertex -1 -0.5 -0.49935
  endloop
 endfacet
endsolid Exported_from_Blender-2.76_(sub_0)
