solid Exported from Blender-2.76 (sub 0)
facet normal -1.000000 0.000000 0.000000
outer loop
vertex -1.000000 0.500000 -0.499350
vertex -1.000000 -0.500000 -0.499350
vertex -1.000000 -0.500000 0.000650
endloop
endfacet
facet normal -1.000000 0.000000 0.000000
outer loop
vertex -1.000000 -0.500000 0.000650
vertex -1.000000 0.500000 0.000650
vertex -1.000000 0.500000 -0.499350
endloop
endfacet
facet normal 0.000000 1.000000 0.000000
outer loop
vertex -1.000000 0.500000 0.000650
vertex 1.000000 0.500000 0.000650
vertex 1.000000 0.500000 -0.499350
endloop
endfacet
facet normal 0.000000 1.000000 0.000000
outer loop
vertex 1.000000 0.500000 -0.499350
vertex -1.000000 0.500000 -0.499350
vertex -1.000000 0.500000 0.000650
endloop
endfacet
facet normal 1.000000 0.000000 0.000000
outer loop
vertex 1.000000 0.500000 0.000650
vertex 1.000000 -0.500000 0.000650
vertex 1.000000 -0.500000 -0.499350
endloop
endfacet
facet normal 1.000000 0.000000 0.000000
outer loop
vertex 1.000000 -0.500000 -0.499350
vertex 1.000000 0.500000 -0.499350
vertex 1.000000 0.500000 0.000650
endloop
endfacet
facet normal 0.000000 -1.000000 0.000000
outer loop
vertex -1.000000 -0.500000 -0.499350
vertex 1.000000 -0.500000 -0.499350
vertex 1.000000 -0.500000 0.000650
endloop
endfacet
facet normal 0.000000 -1.000000 0.000000
outer loop
vertex 1.000000 -0.500000 0.000650
vertex -1.000000 -0.500000 0.000650
vertex -1.000000 -0.500000 -0.499350
endloop
endfacet
facet normal 0.000000 0.000000 -1.000000
outer loop
vertex -1.000000 -0.500000 -0.499350
vertex -1.000000 0.500000 -0.499350
vertex 1.000000 0.500000 -0.499350
endloop
endfacet
facet normal 0.000000 0.000000 -1.000000
outer loop
vertex 1.000000 0.500000 -0.499350
vertex 1.000000 -0.500000 -0.499350
vertex -1.000000 -0.500000 -0.499350
endloop
endfacet
endsolid Exported from Blender-2.76 (sub 0)
