solid Exported from Blender-2.76 (sub 0)
facet normal 0.002000 -0.002437 0.999995
outer loop
vertex 1.000000 -0.500000 0.000650
vertex 0.070711 -0.070711 0.003555
vertex 0.055557 -0.083147 0.003555
endloop
endfacet
facet normal -0.002266 -0.001860 0.999996
outer loop
vertex -0.070711 -0.070711 0.003555
vertex -0.083147 -0.055557 0.003555
vertex -1.000000 -0.500000 0.000650
endloop
endfacet
facet normal 0.001685 -0.003152 0.999994
outer loop
vertex 1.000000 -0.500000 0.000650
vertex 0.055557 -0.083147 0.003555
vertex 0.038268 -0.092388 0.003555
endloop
endfacet
facet normal -0.002000 -0.002437 0.999995
outer loop
vertex -0.055557 -0.083147 0.003555
vertex -0.070711 -0.070711 0.003555
vertex -1.000000 -0.500000 0.000650
endloop
endfacet
facet normal 0.000000 -0.007126 0.999975
outer loop
vertex -1.000000 -0.500000 0.000650
vertex 1.000000 -0.500000 0.000650
vertex 0.038268 -0.092388 0.003555
endloop
endfacet
facet normal -0.001685 -0.003152 0.999994
outer loop
vertex -0.038268 -0.092388 0.003555
vertex -0.055557 -0.083147 0.003555
vertex -1.000000 -0.500000 0.000650
endloop
endfacet
facet normal 0.009505 -0.031333 0.999464
outer loop
vertex -1.000000 -0.500000 0.000650
vertex 0.038268 -0.092388 0.003555
vertex 0.019509 -0.098079 0.003555
endloop
endfacet
facet normal -0.001260 -0.004154 0.999991
outer loop
vertex -0.019509 -0.098079 0.003555
vertex -0.038268 -0.092388 0.003555
vertex -1.000000 -0.500000 0.000650
endloop
endfacet
facet normal 0.000949 -0.009634 0.999953
outer loop
vertex -1.000000 -0.500000 0.000650
vertex 0.019509 -0.098079 0.003555
vertex 0.000000 -0.100000 0.003555
endloop
endfacet
facet normal -0.000574 -0.005827 0.999983
outer loop
vertex 0.000000 -0.100000 0.003555
vertex -0.019509 -0.098079 0.003555
vertex -1.000000 -0.500000 0.000650
endloop
endfacet
facet normal -0.003168 0.000000 0.999995
outer loop
vertex -1.000000 0.500000 0.000650
vertex -1.000000 -0.500000 0.000650
vertex -0.083147 -0.055557 0.003555
endloop
endfacet
facet normal -0.002267 0.001860 0.999996
outer loop
vertex -0.083147 0.055557 0.003555
vertex -0.070711 0.070711 0.003555
vertex -1.000000 0.500000 0.000650
endloop
endfacet
facet normal -0.004686 -0.002505 0.999986
outer loop
vertex -1.000000 0.500000 0.000650
vertex -0.083147 -0.055557 0.003555
vertex -0.092388 -0.038268 0.003555
endloop
endfacet
facet normal -0.002516 0.001345 0.999996
outer loop
vertex -0.092388 0.038268 0.003555
vertex -0.083147 0.055557 0.003555
vertex -1.000000 0.500000 0.000650
endloop
endfacet
facet normal -0.003903 -0.001184 0.999992
outer loop
vertex -1.000000 0.500000 0.000650
vertex -0.092388 -0.038268 0.003555
vertex -0.098078 -0.019509 0.003555
endloop
endfacet
facet normal -0.002773 0.000841 0.999996
outer loop
vertex -0.098078 0.019509 0.003555
vertex -0.092388 0.038268 0.003555
vertex -1.000000 0.500000 0.000650
endloop
endfacet
facet normal -0.003414 -0.000336 0.999994
outer loop
vertex -1.000000 0.500000 0.000650
vertex -0.098078 -0.019509 0.003555
vertex -0.100000 0.000000 0.003555
endloop
endfacet
facet normal -0.003060 0.000301 0.999995
outer loop
vertex -0.100000 0.000000 0.003555
vertex -0.098078 0.019509 0.003555
vertex -1.000000 0.500000 0.000650
endloop
endfacet
facet normal -0.002000 0.002437 0.999995
outer loop
vertex -1.000000 0.500000 0.000650
vertex -0.070711 0.070711 0.003555
vertex -0.055557 0.083147 0.003555
endloop
endfacet
facet normal 0.002000 0.002437 0.999995
outer loop
vertex 0.055557 0.083147 0.003555
vertex 0.070711 0.070711 0.003555
vertex 1.000000 0.500000 0.000650
endloop
endfacet
facet normal -0.001685 0.003152 0.999994
outer loop
vertex -1.000000 0.500000 0.000650
vertex -0.055557 0.083147 0.003555
vertex -0.038268 0.092388 0.003555
endloop
endfacet
facet normal 0.001685 0.003152 0.999994
outer loop
vertex 0.038268 0.092388 0.003555
vertex 0.055557 0.083147 0.003555
vertex 1.000000 0.500000 0.000650
endloop
endfacet
facet normal 0.000000 0.007126 0.999975
outer loop
vertex 1.000000 0.500000 0.000650
vertex -1.000000 0.500000 0.000650
vertex -0.038268 0.092388 0.003555
endloop
endfacet
facet normal 0.001260 0.004154 0.999991
outer loop
vertex 0.019509 0.098079 0.003555
vertex 0.038268 0.092388 0.003555
vertex 1.000000 0.500000 0.000650
endloop
endfacet
facet normal -0.009504 0.031332 0.999464
outer loop
vertex 1.000000 0.500000 0.000650
vertex -0.038268 0.092388 0.003555
vertex -0.019509 0.098079 0.003555
endloop
endfacet
facet normal 0.000574 0.005827 0.999983
outer loop
vertex 0.000000 0.100000 0.003555
vertex 0.019509 0.098079 0.003555
vertex 1.000000 0.500000 0.000650
endloop
endfacet
facet normal -0.000949 0.009634 0.999953
outer loop
vertex -0.019509 0.098079 0.003555
vertex 0.000000 0.100000 0.003555
vertex 1.000000 0.500000 0.000650
endloop
endfacet
facet normal 0.003126 0.000000 0.999995
outer loop
vertex 1.000000 -0.500000 0.000650
vertex 1.000000 0.500000 0.000650
vertex 0.070711 0.070711 0.003555
endloop
endfacet
facet normal 0.002267 -0.001860 0.999996
outer loop
vertex 0.083147 -0.055557 0.003555
vertex 0.070711 -0.070711 0.003555
vertex 1.000000 -0.500000 0.000650
endloop
endfacet
facet normal 0.006302 0.005172 0.999967
outer loop
vertex 1.000000 -0.500000 0.000650
vertex 0.070711 0.070711 0.003555
vertex 0.083147 0.055557 0.003555
endloop
endfacet
facet normal 0.002516 -0.001345 0.999996
outer loop
vertex 0.092388 -0.038268 0.003555
vertex 0.083147 -0.055557 0.003555
vertex 1.000000 -0.500000 0.000650
endloop
endfacet
facet normal 0.004686 0.002505 0.999986
outer loop
vertex 1.000000 -0.500000 0.000650
vertex 0.083147 0.055557 0.003555
vertex 0.092388 0.038268 0.003555
endloop
endfacet
facet normal 0.002773 -0.000841 0.999996
outer loop
vertex 0.098078 -0.019509 0.003555
vertex 0.092388 -0.038268 0.003555
vertex 1.000000 -0.500000 0.000650
endloop
endfacet
facet normal 0.003902 0.001184 0.999992
outer loop
vertex 1.000000 -0.500000 0.000650
vertex 0.092388 0.038268 0.003555
vertex 0.098078 0.019509 0.003555
endloop
endfacet
facet normal 0.003060 -0.000301 0.999995
outer loop
vertex 0.100000 0.000000 0.003555
vertex 0.098078 -0.019509 0.003555
vertex 1.000000 -0.500000 0.000650
endloop
endfacet
facet normal 0.003414 0.000336 0.999994
outer loop
vertex 0.098078 0.019509 0.003555
vertex 0.100000 0.000000 0.003555
vertex 1.000000 -0.500000 0.000650
endloop
endfacet
endsolid Exported from Blender-2.76 (sub 0)
