solid Exported from Blender-2.76 (sub 0)
facet normal 0.000000 0.000000 1.000000
outer loop
vertex 0.132058 -0.240785 -0.000358
vertex 0.398329 -0.240785 -0.000358
vertex 0.094340 -0.094306 -0.000358
endloop
endfacet
facet normal -0.000000 0.000000 1.000000
outer loop
vertex 0.094340 -0.094306 -0.000358
vertex 0.042842 -0.129599 -0.000358
vertex 0.132058 -0.240785 -0.000358
endloop
endfacet
facet normal 0.000000 0.000000 1.000000
outer loop
vertex 0.398329 0.078083 -0.000358
vertex 0.398329 0.237518 -0.000358
vertex 0.094340 0.091039 -0.000358
endloop
endfacet
facet normal 0.000000 0.000000 1.000000
outer loop
vertex 0.094340 0.091039 -0.000358
vertex 0.130679 0.041022 -0.000358
vertex 0.398329 0.078083 -0.000358
endloop
endfacet
facet normal 0.000000 0.000000 1.000000
outer loop
vertex -0.400483 -0.081351 -0.000358
vertex -0.400483 -0.240785 -0.000358
vertex -0.096495 -0.094306 -0.000358
endloop
endfacet
facet normal -0.000000 0.000000 1.000000
outer loop
vertex -0.096495 -0.094306 -0.000358
vertex -0.132833 -0.044289 -0.000358
vertex -0.400483 -0.081351 -0.000358
endloop
endfacet
facet normal 0.000000 0.000000 1.000000
outer loop
vertex -0.134212 0.237518 -0.000358
vertex -0.400483 0.237518 -0.000358
vertex -0.096495 0.091039 -0.000358
endloop
endfacet
facet normal 0.000000 0.000000 1.000000
outer loop
vertex -0.096495 0.091039 -0.000358
vertex -0.044996 0.126332 -0.000358
vertex -0.134212 0.237518 -0.000358
endloop
endfacet
facet normal 0.000000 0.000000 1.000000
outer loop
vertex 0.398329 0.237518 -0.000358
vertex 0.132058 0.237518 -0.000358
vertex 0.042842 0.126332 -0.000358
endloop
endfacet
facet normal 0.000000 0.000000 1.000000
outer loop
vertex 0.042842 0.126332 -0.000358
vertex 0.094340 0.091039 -0.000358
vertex 0.398329 0.237518 -0.000358
endloop
endfacet
facet normal 0.000000 0.000000 1.000000
outer loop
vertex 0.132058 0.237518 -0.000358
vertex -0.134212 0.237518 -0.000358
vertex -0.044996 0.126332 -0.000358
endloop
endfacet
facet normal 0.000000 0.000000 1.000000
outer loop
vertex -0.044996 0.126332 -0.000358
vertex 0.042842 0.126332 -0.000358
vertex 0.132058 0.237518 -0.000358
endloop
endfacet
facet normal 0.000000 0.000000 1.000000
outer loop
vertex 0.933629 0.459889 -0.000358
vertex 0.310491 0.459889 -0.000358
vertex 0.221275 0.348703 -0.000358
endloop
endfacet
facet normal 0.000000 0.000000 1.000000
outer loop
vertex 0.221275 0.348703 -0.000358
vertex 0.665979 0.348703 -0.000358
vertex 0.933629 0.459889 -0.000358
endloop
endfacet
facet normal 0.000000 0.000000 1.000000
outer loop
vertex 0.665979 0.348703 -0.000358
vertex 0.221275 0.348703 -0.000358
vertex 0.132058 0.237518 -0.000358
endloop
endfacet
facet normal 0.000000 0.000000 1.000000
outer loop
vertex 0.132058 0.237518 -0.000358
vertex 0.398329 0.237518 -0.000358
vertex 0.665979 0.348703 -0.000358
endloop
endfacet
facet normal 0.000000 0.000000 1.000000
outer loop
vertex 0.310491 0.459889 -0.000358
vertex -0.312646 0.459889 -0.000358
vertex -0.223429 0.348703 -0.000358
endloop
endfacet
facet normal 0.000000 0.000000 1.000000
outer loop
vertex -0.223429 0.348703 -0.000358
vertex 0.221275 0.348703 -0.000358
vertex 0.310491 0.459889 -0.000358
endloop
endfacet
facet normal 0.000000 0.000000 1.000000
outer loop
vertex 0.221275 0.348703 -0.000358
vertex -0.223429 0.348703 -0.000358
vertex -0.134212 0.237518 -0.000358
endloop
endfacet
facet normal 0.000000 0.000000 1.000000
outer loop
vertex -0.134212 0.237518 -0.000358
vertex 0.132058 0.237518 -0.000358
vertex 0.221275 0.348703 -0.000358
endloop
endfacet
facet normal 0.000000 0.000000 1.000000
outer loop
vertex -0.312646 0.459889 -0.000358
vertex -0.935783 0.459889 -0.000358
vertex -0.668133 0.348703 -0.000358
endloop
endfacet
facet normal 0.000000 0.000000 1.000000
outer loop
vertex -0.668133 0.348703 -0.000358
vertex -0.223429 0.348703 -0.000358
vertex -0.312646 0.459889 -0.000358
endloop
endfacet
facet normal 0.000000 0.000000 1.000000
outer loop
vertex -0.223429 0.348703 -0.000358
vertex -0.668133 0.348703 -0.000358
vertex -0.400483 0.237518 -0.000358
endloop
endfacet
facet normal 0.000000 0.000000 1.000000
outer loop
vertex -0.400483 0.237518 -0.000358
vertex -0.134212 0.237518 -0.000358
vertex -0.223429 0.348703 -0.000358
endloop
endfacet
facet normal 0.000000 0.000000 1.000000
outer loop
vertex -0.400483 0.237518 -0.000358
vertex -0.400483 0.078083 -0.000358
vertex -0.132833 0.041022 -0.000358
endloop
endfacet
facet normal 0.000000 0.000000 1.000000
outer loop
vertex -0.132833 0.041022 -0.000358
vertex -0.096495 0.091039 -0.000358
vertex -0.400483 0.237518 -0.000358
endloop
endfacet
facet normal 0.000000 0.000000 1.000000
outer loop
vertex -0.400483 0.078083 -0.000358
vertex -0.400483 -0.081351 -0.000358
vertex -0.132833 -0.044289 -0.000358
endloop
endfacet
facet normal -0.000000 0.000000 1.000000
outer loop
vertex -0.132833 -0.044289 -0.000358
vertex -0.132833 0.041022 -0.000358
vertex -0.400483 0.078083 -0.000358
endloop
endfacet
facet normal 0.000000 0.000000 1.000000
outer loop
vertex -0.935783 0.459889 -0.000358
vertex -0.935783 0.152207 -0.000358
vertex -0.668133 0.115145 -0.000358
endloop
endfacet
facet normal 0.000000 0.000000 1.000000
outer loop
vertex -0.668133 0.115145 -0.000358
vertex -0.668133 0.348703 -0.000358
vertex -0.935783 0.459889 -0.000358
endloop
endfacet
facet normal -0.000000 0.000000 1.000000
outer loop
vertex -0.668133 0.348703 -0.000358
vertex -0.668133 0.115145 -0.000358
vertex -0.400483 0.078083 -0.000358
endloop
endfacet
facet normal 0.000000 0.000000 1.000000
outer loop
vertex -0.400483 0.078083 -0.000358
vertex -0.400483 0.237518 -0.000358
vertex -0.668133 0.348703 -0.000358
endloop
endfacet
facet normal 0.000000 0.000000 1.000000
outer loop
vertex -0.935783 0.152207 -0.000358
vertex -0.935783 -0.155474 -0.000358
vertex -0.668133 -0.118413 -0.000358
endloop
endfacet
facet normal -0.000000 0.000000 1.000000
outer loop
vertex -0.668133 -0.118413 -0.000358
vertex -0.668133 0.115145 -0.000358
vertex -0.935783 0.152207 -0.000358
endloop
endfacet
facet normal -0.000000 0.000000 1.000000
outer loop
vertex -0.668133 0.115145 -0.000358
vertex -0.668133 -0.118413 -0.000358
vertex -0.400483 -0.081351 -0.000358
endloop
endfacet
facet normal -0.000000 0.000000 1.000000
outer loop
vertex -0.400483 -0.081351 -0.000358
vertex -0.400483 0.078083 -0.000358
vertex -0.668133 0.115145 -0.000358
endloop
endfacet
facet normal 0.000000 0.000000 1.000000
outer loop
vertex -0.935783 -0.155474 -0.000358
vertex -0.935783 -0.463156 -0.000358
vertex -0.668133 -0.351971 -0.000358
endloop
endfacet
facet normal 0.000000 0.000000 1.000000
outer loop
vertex -0.668133 -0.351971 -0.000358
vertex -0.668133 -0.118413 -0.000358
vertex -0.935783 -0.155474 -0.000358
endloop
endfacet
facet normal -0.000000 0.000000 1.000000
outer loop
vertex -0.668133 -0.118413 -0.000358
vertex -0.668133 -0.351971 -0.000358
vertex -0.400483 -0.240785 -0.000358
endloop
endfacet
facet normal -0.000000 0.000000 1.000000
outer loop
vertex -0.400483 -0.240785 -0.000358
vertex -0.400483 -0.081351 -0.000358
vertex -0.668133 -0.118413 -0.000358
endloop
endfacet
facet normal -0.000000 0.000000 1.000000
outer loop
vertex 0.398329 -0.240785 -0.000358
vertex 0.398329 -0.081351 -0.000358
vertex 0.130679 -0.044289 -0.000358
endloop
endfacet
facet normal 0.000000 0.000000 1.000000
outer loop
vertex 0.130679 -0.044289 -0.000358
vertex 0.094340 -0.094306 -0.000358
vertex 0.398329 -0.240785 -0.000358
endloop
endfacet
facet normal -0.000000 0.000000 1.000000
outer loop
vertex 0.398329 -0.081351 -0.000358
vertex 0.398329 0.078083 -0.000358
vertex 0.130679 0.041022 -0.000358
endloop
endfacet
facet normal 0.000000 0.000000 1.000000
outer loop
vertex 0.130679 0.041022 -0.000358
vertex 0.130679 -0.044289 -0.000358
vertex 0.398329 -0.081351 -0.000358
endloop
endfacet
facet normal -0.000000 0.000000 1.000000
outer loop
vertex 0.933629 -0.463156 -0.000358
vertex 0.933629 -0.155474 -0.000358
vertex 0.665979 -0.118413 -0.000358
endloop
endfacet
facet normal 0.000000 0.000000 1.000000
outer loop
vertex 0.665979 -0.118413 -0.000358
vertex 0.665979 -0.351971 -0.000358
vertex 0.933629 -0.463156 -0.000358
endloop
endfacet
facet normal 0.000000 0.000000 1.000000
outer loop
vertex 0.665979 -0.351971 -0.000358
vertex 0.665979 -0.118413 -0.000358
vertex 0.398329 -0.081351 -0.000358
endloop
endfacet
facet normal 0.000000 0.000000 1.000000
outer loop
vertex 0.398329 -0.081351 -0.000358
vertex 0.398329 -0.240785 -0.000358
vertex 0.665979 -0.351971 -0.000358
endloop
endfacet
facet normal -0.000000 0.000000 1.000000
outer loop
vertex 0.933629 -0.155474 -0.000358
vertex 0.933629 0.152207 -0.000358
vertex 0.665979 0.115145 -0.000358
endloop
endfacet
facet normal 0.000000 0.000000 1.000000
outer loop
vertex 0.665979 0.115145 -0.000358
vertex 0.665979 -0.118413 -0.000358
vertex 0.933629 -0.155474 -0.000358
endloop
endfacet
facet normal 0.000000 0.000000 1.000000
outer loop
vertex 0.665979 -0.118413 -0.000358
vertex 0.665979 0.115145 -0.000358
vertex 0.398329 0.078083 -0.000358
endloop
endfacet
facet normal 0.000000 0.000000 1.000000
outer loop
vertex 0.398329 0.078083 -0.000358
vertex 0.398329 -0.081351 -0.000358
vertex 0.665979 -0.118413 -0.000358
endloop
endfacet
facet normal 0.000000 0.000000 1.000000
outer loop
vertex 0.933629 0.152207 -0.000358
vertex 0.933629 0.459889 -0.000358
vertex 0.665979 0.348703 -0.000358
endloop
endfacet
facet normal -0.000000 0.000000 1.000000
outer loop
vertex 0.665979 0.348703 -0.000358
vertex 0.665979 0.115145 -0.000358
vertex 0.933629 0.152207 -0.000358
endloop
endfacet
facet normal 0.000000 0.000000 1.000000
outer loop
vertex 0.665979 0.115145 -0.000358
vertex 0.665979 0.348703 -0.000358
vertex 0.398329 0.237518 -0.000358
endloop
endfacet
facet normal 0.000000 0.000000 1.000000
outer loop
vertex 0.398329 0.237518 -0.000358
vertex 0.398329 0.078083 -0.000358
vertex 0.665979 0.115145 -0.000358
endloop
endfacet
facet normal 0.000000 0.000000 1.000000
outer loop
vertex -0.400483 -0.240785 -0.000358
vertex -0.134212 -0.240785 -0.000358
vertex -0.044996 -0.129599 -0.000358
endloop
endfacet
facet normal 0.000000 0.000000 1.000000
outer loop
vertex -0.044996 -0.129599 -0.000358
vertex -0.096495 -0.094306 -0.000358
vertex -0.400483 -0.240785 -0.000358
endloop
endfacet
facet normal 0.000000 0.000000 1.000000
outer loop
vertex -0.134212 -0.240785 -0.000358
vertex 0.132058 -0.240785 -0.000358
vertex 0.042842 -0.129599 -0.000358
endloop
endfacet
facet normal 0.000000 0.000000 1.000000
outer loop
vertex 0.042842 -0.129599 -0.000358
vertex -0.044996 -0.129599 -0.000358
vertex -0.134212 -0.240785 -0.000358
endloop
endfacet
facet normal 0.000000 0.000000 1.000000
outer loop
vertex -0.935783 -0.463156 -0.000358
vertex -0.312646 -0.463156 -0.000358
vertex -0.223429 -0.351971 -0.000358
endloop
endfacet
facet normal 0.000000 0.000000 1.000000
outer loop
vertex -0.223429 -0.351971 -0.000358
vertex -0.668133 -0.351971 -0.000358
vertex -0.935783 -0.463156 -0.000358
endloop
endfacet
facet normal 0.000000 0.000000 1.000000
outer loop
vertex -0.668133 -0.351971 -0.000358
vertex -0.223429 -0.351971 -0.000358
vertex -0.134212 -0.240785 -0.000358
endloop
endfacet
facet normal 0.000000 0.000000 1.000000
outer loop
vertex -0.134212 -0.240785 -0.000358
vertex -0.400483 -0.240785 -0.000358
vertex -0.668133 -0.351971 -0.000358
endloop
endfacet
facet normal 0.000000 0.000000 1.000000
outer loop
vertex -0.312646 -0.463156 -0.000358
vertex 0.310491 -0.463156 -0.000358
vertex 0.221275 -0.351971 -0.000358
endloop
endfacet
facet normal 0.000000 0.000000 1.000000
outer loop
vertex 0.221275 -0.351971 -0.000358
vertex -0.223429 -0.351971 -0.000358
vertex -0.312646 -0.463156 -0.000358
endloop
endfacet
facet normal 0.000000 0.000000 1.000000
outer loop
vertex -0.223429 -0.351971 -0.000358
vertex 0.221275 -0.351971 -0.000358
vertex 0.132058 -0.240785 -0.000358
endloop
endfacet
facet normal 0.000000 0.000000 1.000000
outer loop
vertex 0.132058 -0.240785 -0.000358
vertex -0.134212 -0.240785 -0.000358
vertex -0.223429 -0.351971 -0.000358
endloop
endfacet
facet normal 0.000000 0.000000 1.000000
outer loop
vertex 0.310491 -0.463156 -0.000358
vertex 0.933629 -0.463156 -0.000358
vertex 0.665979 -0.351971 -0.000358
endloop
endfacet
facet normal 0.000000 0.000000 1.000000
outer loop
vertex 0.665979 -0.351971 -0.000358
vertex 0.221275 -0.351971 -0.000358
vertex 0.310491 -0.463156 -0.000358
endloop
endfacet
facet normal 0.000000 0.000000 1.000000
outer loop
vertex 0.221275 -0.351971 -0.000358
vertex 0.665979 -0.351971 -0.000358
vertex 0.398329 -0.240785 -0.000358
endloop
endfacet
facet normal 0.000000 0.000000 1.000000
outer loop
vertex 0.398329 -0.240785 -0.000358
vertex 0.132058 -0.240785 -0.000358
vertex 0.221275 -0.351971 -0.000358
endloop
endfacet
endsolid Exported from Blender-2.76 (sub 0)
